<svg xmlns="http://www.w3.org/2000/svg" width="16" height="16" viewBox="0 0 16 16">
  <defs>
    <style>
      .cls-1 {
        fill: none;
      }

      .cls-2 {
        fill: #ea9359;
        stroke: #ea9359;
        stroke-width: 0.4px;
      }
    </style>
  </defs>
  <g id="通告ICON" transform="translate(-748 -626)">
    <rect id="矩形_1179" data-name="矩形 1179" class="cls-1" width="16" height="16" transform="translate(748 626)"/>
    <path id="路径_1264" data-name="路径 1264" class="cls-2" d="M7.195,13.51a1.683,1.683,0,0,1-1.041-.361l-.041-.041L2.92,10.155H1.512A1.513,1.513,0,0,1,0,8.645V5.162A1.513,1.513,0,0,1,1.512,3.65H2.92L6.134.664A1.667,1.667,0,0,1,7.89.443a1.648,1.648,0,0,1,.97,1.452v9.947a1.252,1.252,0,0,1-.011.177,1.626,1.626,0,0,1-1,1.355,1.671,1.671,0,0,1-.658.136ZM6.76,12.418a.736.736,0,0,0,.716.085.69.69,0,0,0,.43-.586V1.905A.7.7,0,0,0,7.5,1.3a.719.719,0,0,0-.748.092L3.294,4.6H1.512a.562.562,0,0,0-.561.562V8.645a.562.562,0,0,0,.561.56h1.78Zm4.4.024a.475.475,0,0,1-.306-.839A6.127,6.127,0,0,0,12.4,4.147a6.217,6.217,0,0,0-1.558-1.954.475.475,0,1,1,.609-.728,7.151,7.151,0,0,1,1.791,2.253,7.065,7.065,0,0,1,0,6.363,7.151,7.151,0,0,1-1.774,2.25.476.476,0,0,1-.306.111Zm-1.487-2.2a.475.475,0,0,1-.3-.842,3.216,3.216,0,0,0-.024-5,.475.475,0,1,1,.593-.741,4.159,4.159,0,0,1,.041,6.472.476.476,0,0,1-.309.108Z" transform="translate(749.5 627.212)"/>
  </g>
</svg>
