<svg xmlns="http://www.w3.org/2000/svg" width="74" height="74" viewBox="0 0 74 74">
  <defs>
    <style>
      .cls-1, .cls-2 {
        fill: none;
      }

      .cls-3 {
        fill: #cde0ff;
      }

      .cls-4, .cls-5 {
        stroke: none;
      }

      .cls-5 {
        fill: #3c83f8;
      }
    </style>
  </defs>
  <g id="业务流程跟踪" transform="translate(-795 -1133)">
    <g id="人工评估服务" transform="translate(-573 -442)">
      <rect id="矩形_1196" data-name="矩形 1196" class="cls-1" width="74" height="74" transform="translate(1368 1575)"/>
      <g id="人工评估服务-2" data-name="人工评估服务">
        <g id="组_1821" data-name="组 1821" transform="translate(250 -103)">
          <g id="组_1809" data-name="组 1809" transform="translate(424 1)">
            <g id="组_1806" data-name="组 1806" transform="translate(10 14)">
              <g id="多边形_23" data-name="多边形 23" class="cls-2" transform="translate(687 1670)">
                <path class="cls-4" d="M51,0,68,29.5,51,59H17L0,29.5,17,0Z"/>
                <path class="cls-5" d="M 19.31156921386719 4 L 4.616653442382813 29.5 L 19.31156921386719 55 L 48.68843078613281 55 L 63.38334655761719 29.5 L 48.68843078613281 4 L 19.31156921386719 4 M 17 0 L 51 0 L 68 29.5 L 51 59 L 17 59 L 0 29.5 L 17 0 Z"/>
              </g>
            </g>
          </g>
        </g>
      </g>
    </g>
    <path id="路径_1276" data-name="路径 1276" class="cls-3" d="M118.385,72.772a3.4,3.4,0,0,1,.244.616,3.849,3.849,0,0,1,.174,1.177V91.674a3.963,3.963,0,0,1-1.162,2.819,4.02,4.02,0,0,1-2.834,1.162H94.965a4.007,4.007,0,0,1-4-3.98V74.565a4.018,4.018,0,0,1,1.186-2.833,3.953,3.953,0,0,1,2.819-1.163h9.655a6.955,6.955,0,0,1,1.732-2.848l.046-.046a7.042,7.042,0,0,1,9.921.046h0a6.975,6.975,0,0,1,2.066,4.96v.091Zm-7.05-3.479h0a3.424,3.424,0,0,1,3.449,3.449,3.449,3.449,0,0,1-6.9,0,3.45,3.45,0,0,1,3.449-3.449Zm1.534,1.914h0a2.2,2.2,0,0,0-1.534-.631,2.17,2.17,0,0,0,0,4.339,2.176,2.176,0,0,0,1.534-.646,2.172,2.172,0,0,0,0-3.061Zm-8.568,1.5H94.965A1.867,1.867,0,0,0,93.1,74.565V91.674a1.867,1.867,0,0,0,1.862,1.853h19.842a1.867,1.867,0,0,0,1.862-1.853V77.3a7.092,7.092,0,0,1-2.69,1.922l-2.142,2.636a.638.638,0,0,1-.9.084.414.414,0,0,1-.107-.084h0l-.008-.015-2.135-2.621a7.024,7.024,0,0,1-4.39-6.51Zm11.106-4.095h0a5.779,5.779,0,0,0-8.113-.031l-.031.031a5.765,5.765,0,0,0-.668,7.345,5.718,5.718,0,0,0,2.712,2.128.692.692,0,0,1,.28.189l1.748,2.157,1.762-2.143a.563.563,0,0,1,.266-.2,5.824,5.824,0,0,0,3.745-5.409,5.8,5.8,0,0,0-1.7-4.064ZM106.991,80.8h0a.638.638,0,0,1,.9,0,.648.648,0,0,1,0,.912l-1.77,1.77,3.677,3.677,4.1-4.1a.639.639,0,1,1,.9.9l-4.094,4.11,1.374,1.367a.646.646,0,0,1,0,.911.633.633,0,0,1-.911,0l-1.784-1.808h-.024l-.007-.015-.015-.008-.008-.015-.015-.008-.008-.007L105.228,84.4l-7.384,7.369a.662.662,0,0,1-.912,0,.649.649,0,0,1,0-.9l7.384-7.377-3.039-3.039-4.938,4.931a.647.647,0,0,1-.911,0,.663.663,0,0,1,0-.912l4.938-4.93-3.13-3.123a.633.633,0,0,1,0-.911.646.646,0,0,1,.911,0l3.556,3.547.008.016.007.015.015.015.015.015,3.48,3.479,1.763-1.785Z" transform="translate(727.039 1089.346)"/>
  </g>
</svg>
