<svg xmlns="http://www.w3.org/2000/svg" width="74" height="74" viewBox="0 0 74 74">
  <defs>
    <style>
      .cls-1, .cls-2 {
        fill: none;
      }

      .cls-3 {
        fill: #cde0ff;
      }

      .cls-4, .cls-5 {
        stroke: none;
      }

      .cls-5 {
        fill: #3c83f8;
      }
    </style>
  </defs>
  <g id="人工评估服务" transform="translate(-1368 -1575)">
    <rect id="矩形_1196" data-name="矩形 1196" class="cls-1" width="74" height="74" transform="translate(1368 1575)"/>
    <g id="人工评估服务-2" data-name="人工评估服务">
      <g id="组_1821" data-name="组 1821" transform="translate(250 -103)">
        <g id="组_1809" data-name="组 1809" transform="translate(424 1)">
          <g id="组_1806" data-name="组 1806" transform="translate(10 14)">
            <g id="多边形_23" data-name="多边形 23" class="cls-2" transform="translate(687 1670)">
              <path class="cls-4" d="M51,0,68,29.5,51,59H17L0,29.5,17,0Z"/>
              <path class="cls-5" d="M 19.31156921386719 4 L 4.616653442382813 29.5 L 19.31156921386719 55 L 48.68843078613281 55 L 63.38334655761719 29.5 L 48.68843078613281 4 L 19.31156921386719 4 M 17 0 L 51 0 L 68 29.5 L 51 59 L 17 59 L 0 29.5 L 17 0 Z"/>
            </g>
          </g>
        </g>
      </g>
      <path id="路径_1271" data-name="路径 1271" class="cls-3" d="M51.063,164.382a6.635,6.635,0,1,1,6.633,6.5,6.567,6.567,0,0,1-6.633-6.5Zm9.118,17.925v-.449a9.511,9.511,0,0,1,4.331-7.942,8.673,8.673,0,0,0-3.773-.867h-5.53a8.483,8.483,0,0,0-8.569,8.395v.542c0,1.9,3.836,1.9,8.569,1.9H60.5a3.824,3.824,0,0,1-.315-1.575ZM71.957,162.3a5.4,5.4,0,1,0,5.506,5.4A5.452,5.452,0,0,0,71.957,162.3Zm0,0a5.4,5.4,0,1,0,5.506,5.4A5.452,5.452,0,0,0,71.957,162.3ZM69.895,174.89a7.042,7.042,0,0,0-7.113,6.968v.449c0,1.573,3.184,1.573,7.113,1.573h4.59c3.927,0,7.11-.058,7.11-1.573v-.449a7.04,7.04,0,0,0-7.11-6.968Zm0,0" transform="translate(1341.361 1439.118)"/>
    </g>
  </g>
</svg>
