<svg xmlns="http://www.w3.org/2000/svg" width="74" height="74" viewBox="0 0 74 74">
  <defs>
    <style>
      .cls-1, .cls-2 {
        fill: none;
      }

      .cls-3 {
        fill: #cde0ff;
      }

      .cls-4, .cls-5 {
        stroke: none;
      }

      .cls-5 {
        fill: #3c83f8;
      }
    </style>
  </defs>
  <g id="便捷化服务" transform="translate(-795 -2109)">
    <g id="车辆二次评估" transform="translate(0 498)">
      <g id="车辆二次评估-2" data-name="车辆二次评估">
        <g id="业务流程跟踪" transform="translate(0 478)">
          <g id="人工评估服务" transform="translate(-573 -442)">
            <rect id="矩形_1196" data-name="矩形 1196" class="cls-1" width="74" height="74" transform="translate(1368 1575)"/>
            <g id="人工评估服务-2" data-name="人工评估服务">
              <g id="组_1821" data-name="组 1821" transform="translate(250 -103)">
                <g id="组_1809" data-name="组 1809" transform="translate(424 1)">
                  <g id="组_1806" data-name="组 1806" transform="translate(10 14)">
                    <g id="多边形_23" data-name="多边形 23" class="cls-2" transform="translate(687 1670)">
                      <path class="cls-4" d="M51,0,68,29.5,51,59H17L0,29.5,17,0Z"/>
                      <path class="cls-5" d="M 19.31156921386719 4 L 4.616653442382813 29.5 L 19.31156921386719 55 L 48.68843078613281 55 L 63.38334655761719 29.5 L 48.68843078613281 4 L 19.31156921386719 4 M 17 0 L 51 0 L 68 29.5 L 51 59 L 17 59 L 0 29.5 L 17 0 Z"/>
                    </g>
                  </g>
                </g>
              </g>
            </g>
          </g>
        </g>
      </g>
    </g>
    <path id="路径_1289" data-name="路径 1289" class="cls-3" d="M161.588,17.153a9.528,9.528,0,1,1,16.017-3.966.88.88,0,0,1-1.689-.49A7.8,7.8,0,0,0,165,3.548a7.762,7.762,0,0,0-2.153,12.388h0a.876.876,0,1,1-1.26,1.218Zm19.346,2.138,0,2.569a5.757,5.757,0,0,1-.127,1.012l-1.859,7.471h0a3.8,3.8,0,0,1-3.254,2.614l-5.47.039a3.719,3.719,0,0,1-1.938-.5,5.042,5.042,0,0,1-.688-.488,3.8,3.8,0,0,1-.873-1.249,14.057,14.057,0,0,0-1.555-2.883l-4-5.689a2.3,2.3,0,0,1,.664-3.3,2.76,2.76,0,0,1,2.866-.109,2.421,2.421,0,0,1,.745.628l.554.7L166,15.677l.032-.613,0-4.759a2.326,2.326,0,0,1,.744-1.708,2.7,2.7,0,0,1,3.138-.378,2.417,2.417,0,0,1,1.252,2.036l-.006,2.825a2.84,2.84,0,0,1,.672-.09,2.466,2.466,0,0,1,1.347.3,2.4,2.4,0,0,1,.923,1.031,2.2,2.2,0,0,1,.22.532,2.809,2.809,0,0,1,.766-.118,2.6,2.6,0,0,1,1.384.325,2.229,2.229,0,0,1,.909.975,3.6,3.6,0,0,1,.241.826,2.8,2.8,0,0,1,.759-.115,2.7,2.7,0,0,1,1.384.325,1.937,1.937,0,0,1,.421.292,2.565,2.565,0,0,1,.752,1.88v.045Zm-1.819,2.537-.012-2.619a1.15,1.15,0,0,0-.23-.685c-.037-.05-.047-.065-.055-.075a.769.769,0,0,0-.287-.046l-.122-.008a.591.591,0,0,0-.6.359,1.3,1.3,0,0,0-.119.538l0,.726a.937.937,0,0,1-.944.887.907.907,0,0,1-.487-.108.857.857,0,0,1-.454-.721l0-2.936a.818.818,0,0,0-.3-.668.891.891,0,0,0-.381-.089c-.155,0-.672.016-.692.779l0,2.065a.736.736,0,0,1-.236.523.785.785,0,0,1-.561.211l-.206-.016a.876.876,0,0,1-.472-.106.787.787,0,0,1-.417-.7V17.071l-.016-1.644s-.01-.555-.348-.746a.6.6,0,0,0-.326-.067.59.59,0,0,0-.582.317,1.158,1.158,0,0,0-.114.515l-.017,3.841a.8.8,0,0,1-.765.7l-.264,0a1.037,1.037,0,0,1-.424-.121.735.735,0,0,1-.4-.642l-.02-9.108a.56.56,0,0,0-.327-.541.629.629,0,0,0-.363-.089.776.776,0,0,0-.51.209.605.605,0,0,0-.194.469l.007,12.474a.889.889,0,0,1-.655.826,1.093,1.093,0,0,1-.79-.1.86.86,0,0,1-.29-.229l-2.222-2.882a.842.842,0,0,1-.094-.077.641.641,0,0,0-.119-.092.773.773,0,0,0-.793.031.665.665,0,0,0-.179.943l4,5.685a15.447,15.447,0,0,1,1.759,3.228,1.639,1.639,0,0,0,.766.882,2.037,2.037,0,0,0,.956.227l5.447-.038h0a1.728,1.728,0,0,0,1.555-1.162l1.852-7.45a2.279,2.279,0,0,0,.053-.6Zm-5.507-8.906a.877.877,0,0,0,1.1-.569,6.559,6.559,0,1,0-11.4,2.061.877.877,0,1,0,1.38-1.083,4.793,4.793,0,1,1,8.344-1.512.88.88,0,0,0,.571,1.1Z" transform="translate(662.109 2129)"/>
  </g>
</svg>
