<svg xmlns="http://www.w3.org/2000/svg" width="74" height="74" viewBox="0 0 74 74">
  <defs>
    <style>
      .cls-1, .cls-2 {
        fill: none;
      }

      .cls-3 {
        fill: #cde0ff;
      }

      .cls-4, .cls-5 {
        stroke: none;
      }

      .cls-5 {
        fill: #3c83f8;
      }
    </style>
  </defs>
  <g id="基础数据查询服务" transform="translate(-191 -178)">
    <rect id="矩形_1198" data-name="矩形 1198" class="cls-1" width="74" height="74" transform="translate(191 178)"/>
    <g id="组_1812" data-name="组 1812" transform="translate(-499 -1499)">
      <g id="组_1806" data-name="组 1806" transform="translate(6 15)">
        <g id="多边形_23" data-name="多边形 23" class="cls-2" transform="translate(687 1670)">
          <path class="cls-4" d="M51,0,68,29.5,51,59H17L0,29.5,17,0Z"/>
          <path class="cls-5" d="M 19.31156921386719 4 L 4.616653442382813 29.5 L 19.31156921386719 55 L 48.68843078613281 55 L 63.38334655761719 29.5 L 48.68843078613281 4 L 19.31156921386719 4 M 17 0 L 51 0 L 68 29.5 L 51 59 L 17 59 L 0 29.5 L 17 0 Z"/>
        </g>
      </g>
      <path id="路径_1265" data-name="路径 1265" class="cls-3" d="M73.564,64.022,66.98,60.16,60.4,64.022v7.723l6.584,3.882,6.584-3.882ZM52.48,77.578V85.3l6.584,3.862L65.647,85.3V77.578L59.064,73.7ZM74.9,73.7l-6.584,3.882V85.3L74.9,89.163,81.48,85.3V77.578Z" transform="translate(660.52 1639.84)"/>
    </g>
  </g>
</svg>
