<svg xmlns="http://www.w3.org/2000/svg" width="68" height="59" viewBox="0 0 68 59">
  <defs>
    <style>
      .cls-1 {
        fill: none;
      }

      .cls-2 {
        fill: #cde0ff;
      }

      .cls-3, .cls-4 {
        stroke: none;
      }

      .cls-4 {
        fill: #3c83f8;
      }
    </style>
  </defs>
  <g id="建立车辆标准化档案" transform="translate(-496 -1140)">
    <g id="系统评估服务" transform="translate(-573 -442)">
      <g id="组_1816" data-name="组 1816" transform="translate(-52 -103)">
        <g id="组_1809" data-name="组 1809" transform="translate(424 1)">
          <g id="组_1806" data-name="组 1806" transform="translate(10 14)">
            <g id="多边形_23" data-name="多边形 23" class="cls-1" transform="translate(687 1670)">
              <path class="cls-3" d="M51,0,68,29.5,51,59H17L0,29.5,17,0Z"/>
              <path class="cls-4" d="M 19.31156921386719 4 L 4.616653442382813 29.5 L 19.31156921386719 55 L 48.68843078613281 55 L 63.38334655761719 29.5 L 48.68843078613281 4 L 19.31156921386719 4 M 17 0 L 51 0 L 68 29.5 L 51 59 L 17 59 L 0 29.5 L 17 0 Z"/>
            </g>
          </g>
        </g>
      </g>
    </g>
    <path id="路径_1275" data-name="路径 1275" class="cls-2" d="M121.635,124.846H111v-2.365a1.182,1.182,0,0,0-1.181-1.181H99.181A1.182,1.182,0,0,0,98,122.481v21.01a2.364,2.364,0,0,0,2.362,2.365h21.273A2.365,2.365,0,0,0,124,143.491V127.208A2.362,2.362,0,0,0,121.635,124.846Zm-1.247,9.454h-18.78a.724.724,0,1,1,0-1.447h1.56l2.118-3.668a1.444,1.444,0,0,1,1.974-.529l7.271,4.2h5.861a.724.724,0,1,1,0,1.447Z" transform="translate(419 1035.7)"/>
  </g>
</svg>
