<svg xmlns="http://www.w3.org/2000/svg" width="74" height="74" viewBox="0 0 74 74">
  <defs>
    <style>
      .cls-1, .cls-2 {
        fill: none;
      }

      .cls-3 {
        fill: #cde0ff;
      }

      .cls-4, .cls-5 {
        stroke: none;
      }

      .cls-5 {
        fill: #3c83f8;
      }
    </style>
  </defs>
  <g id="标准化管理" transform="translate(-493 -2208)">
    <rect id="矩形_1210" data-name="矩形 1210" class="cls-1" width="74" height="74" transform="translate(493 2208)"/>
    <g id="标准化服务" transform="translate(0 99)">
      <g id="预警信息推送" transform="translate(0 498)">
        <g id="建立车辆标准化档案" transform="translate(0 478)">
          <g id="系统评估服务" transform="translate(-573 -442)">
            <g id="组_1816" data-name="组 1816" transform="translate(-52 -103)">
              <g id="组_1809" data-name="组 1809" transform="translate(424 1)">
                <g id="组_1806" data-name="组 1806" transform="translate(10 14)">
                  <g id="多边形_23" data-name="多边形 23" class="cls-2" transform="translate(687 1670)">
                    <path class="cls-4" d="M51,0,68,29.5,51,59H17L0,29.5,17,0Z"/>
                    <path class="cls-5" d="M 19.31156921386719 4 L 4.616653442382813 29.5 L 19.31156921386719 55 L 48.68843078613281 55 L 63.38334655761719 29.5 L 48.68843078613281 4 L 19.31156921386719 4 M 17 0 L 51 0 L 68 29.5 L 51 59 L 17 59 L 0 29.5 L 17 0 Z"/>
                  </g>
                </g>
              </g>
            </g>
          </g>
        </g>
      </g>
      <path id="路径_1288" data-name="路径 1288" class="cls-3" d="M11.325,22.483a.569.569,0,0,0,.367-.125L32.164,5.988a.576.576,0,0,0,.213-.367.569.569,0,0,0-.121-.448,13.687,13.687,0,1,0-21.378,17.1.576.576,0,0,0,.448.213Zm2.228-11.436A6.491,6.491,0,0,1,16,6.759,6.572,6.572,0,0,1,20.063,5.29a5.14,5.14,0,0,1,4.06,1.865.6.6,0,0,1,.121.422.584.584,0,0,1-.206.367l-8.653,6.909a.565.565,0,0,1-.8-.092,5.019,5.019,0,0,1-1.032-3.715Zm22-3.455a.587.587,0,0,0-.617.07L10.088,27.446a.569.569,0,0,0-.184.642.576.576,0,0,0,.547.367H35.3a.576.576,0,0,0,.58-.576V8.11a.576.576,0,0,0-.327-.536ZM31.609,23.636c0,.319-.452.569-.771.569H22.662a.576.576,0,0,1-.551-.389.569.569,0,0,1,.2-.653l8.176-6.146a.76.76,0,0,1,.7-.055.679.679,0,0,1,.419.514Z" transform="translate(508.121 2130.966)"/>
    </g>
  </g>
</svg>
