<svg xmlns="http://www.w3.org/2000/svg" width="74" height="74" viewBox="0 0 74 74">
  <defs>
    <style>
      .cls-1, .cls-2 {
        fill: none;
      }

      .cls-3 {
        fill: #cde0ff;
      }

      .cls-4, .cls-5 {
        stroke: none;
      }

      .cls-5 {
        fill: #3c83f8;
      }
    </style>
  </defs>
  <g id="系统评估服务" transform="translate(-1066 -1575)">
    <rect id="矩形_1195" data-name="矩形 1195" class="cls-1" width="74" height="74" transform="translate(1066 1575)"/>
    <g id="组_1823" data-name="组 1823">
      <g id="系统评估服务-2" data-name="系统评估服务">
        <g id="组_1816" data-name="组 1816" transform="translate(-52 -103)">
          <g id="组_1809" data-name="组 1809" transform="translate(424 1)">
            <g id="组_1806" data-name="组 1806" transform="translate(10 14)">
              <g id="多边形_23" data-name="多边形 23" class="cls-2" transform="translate(687 1670)">
                <path class="cls-4" d="M51,0,68,29.5,51,59H17L0,29.5,17,0Z"/>
                <path class="cls-5" d="M 19.31156921386719 4 L 4.616653442382813 29.5 L 19.31156921386719 55 L 48.68843078613281 55 L 63.38334655761719 29.5 L 48.68843078613281 4 L 19.31156921386719 4 M 17 0 L 51 0 L 68 29.5 L 51 59 L 17 59 L 0 29.5 L 17 0 Z"/>
              </g>
            </g>
          </g>
        </g>
        <path id="路径_1270" data-name="路径 1270" class="cls-3" d="M181.063,199.677a14.935,14.935,0,0,1-5.46-3.2.956.956,0,0,1-.308-.741l.181-4.573-3.992-2.126a.954.954,0,0,1-.485-.646,15.563,15.563,0,0,1,0-6.394.957.957,0,0,1,.485-.646l3.992-2.126-.181-4.574a.953.953,0,0,1,.308-.74,14.935,14.935,0,0,1,5.46-3.2.926.926,0,0,1,.788.1l3.817,2.447,3.817-2.447a.923.923,0,0,1,.788-.1,14.935,14.935,0,0,1,5.459,3.2.956.956,0,0,1,.308.741l-.181,4.573,3.992,2.126a.957.957,0,0,1,.485.646,15.563,15.563,0,0,1,0,6.394.954.954,0,0,1-.485.646l-3.992,2.126.181,4.574a.957.957,0,0,1-.308.74,14.935,14.935,0,0,1-5.46,3.2.926.926,0,0,1-.788-.1l-3.817-2.447-3.818,2.447a.924.924,0,0,1-.788.1Zm4.6-8.78a5.706,5.706,0,1,0-5.625-5.706A5.666,5.666,0,0,0,185.667,190.9Zm0-1.9a3.8,3.8,0,1,0-3.75-3.8A3.777,3.777,0,0,0,185.667,189Z" transform="translate(917.333 1426.34)"/>
      </g>
    </g>
  </g>
</svg>
