<svg xmlns="http://www.w3.org/2000/svg" width="74" height="74" viewBox="0 0 74 74">
  <defs>
    <style>
      .cls-1, .cls-2 {
        fill: none;
      }

      .cls-3 {
        fill: #cde0ff;
      }

      .cls-4, .cls-5 {
        stroke: none;
      }

      .cls-5 {
        fill: #3c83f8;
      }
    </style>
  </defs>
  <g id="营销推广服务" transform="translate(-191 -1133)">
    <g id="车辆检测服务" transform="translate(-573 -442)">
      <rect id="矩形_1194" data-name="矩形 1194" class="cls-1" width="74" height="74" transform="translate(764 1575)"/>
      <g id="车辆检测服务-2" data-name="车辆检测服务" transform="translate(0 1)">
        <g id="组_1822" data-name="组 1822">
          <g id="组_1812" data-name="组 1812" transform="translate(74 -103)">
            <g id="组_1806" data-name="组 1806" transform="translate(6 15)">
              <g id="多边形_23" data-name="多边形 23" class="cls-2" transform="translate(687 1670)">
                <path class="cls-4" d="M51,0,68,29.5,51,59H17L0,29.5,17,0Z"/>
                <path class="cls-5" d="M 19.31156921386719 4 L 4.616653442382813 29.5 L 19.31156921386719 55 L 48.68843078613281 55 L 63.38334655761719 29.5 L 48.68843078613281 4 L 19.31156921386719 4 M 17 0 L 51 0 L 68 29.5 L 51 59 L 17 59 L 0 29.5 L 17 0 Z"/>
              </g>
            </g>
          </g>
        </g>
      </g>
    </g>
    <path id="路径_1274" data-name="路径 1274" class="cls-3" d="M286.11,69.868A1.433,1.433,0,0,1,287.5,71.15l1.863,14.318a2.218,2.218,0,0,1-.4,1.582l-4.35,6.006a1.348,1.348,0,0,1-1.963.271,1.449,1.449,0,0,1-.266-.284l-4.256-6a2.218,2.218,0,0,1-.384-1.56l1.823-14.329a1.43,1.43,0,0,1,1.388-1.287h5.152Zm2.909,2.506a.2.2,0,0,1,.21.116l3.014,6.8a2,2,0,0,1,.065,1.46l-1.085,3.161a.4.4,0,0,1-.775-.073L288.85,72.6a.2.2,0,0,1,.171-.226Zm-1.663-8.739a1.2,1.2,0,0,1,.187.013c.483.068.817.379.814.728l-.019.132-.778,3a1.3,1.3,0,0,1-1.177.827l-.2.01H280.9a1.431,1.431,0,0,1-1.327-.7l-.05-.14-.746-3a.55.55,0,0,1-.016-.132.845.845,0,0,1,.82-.725l.181-.011h7.595Z" transform="translate(-56.729 1091.365)"/>
  </g>
</svg>
