<svg xmlns="http://www.w3.org/2000/svg" width="74" height="74" viewBox="0 0 74 74">
  <defs>
    <style>
      .cls-1, .cls-2 {
        fill: none;
      }

      .cls-3 {
        fill: #cde0ff;
      }

      .cls-4, .cls-5 {
        stroke: none;
      }

      .cls-5 {
        fill: #3c83f8;
      }
    </style>
  </defs>
  <g id="车辆历史查询服务" transform="translate(-493 -178)">
    <rect id="矩形_1197" data-name="矩形 1197" class="cls-1" width="74" height="74" transform="translate(493 178)"/>
    <g id="组_1816" data-name="组 1816" transform="translate(-625 -1499)">
      <g id="组_1809" data-name="组 1809" transform="translate(424 1)">
        <g id="组_1806" data-name="组 1806" transform="translate(10 14)">
          <g id="多边形_23" data-name="多边形 23" class="cls-2" transform="translate(687 1670)">
            <path class="cls-4" d="M51,0,68,29.5,51,59H17L0,29.5,17,0Z"/>
            <path class="cls-5" d="M 19.31156921386719 4 L 4.616653442382813 29.5 L 19.31156921386719 55 L 48.68843078613281 55 L 63.38334655761719 29.5 L 48.68843078613281 4 L 19.31156921386719 4 M 17 0 L 51 0 L 68 29.5 L 51 59 L 17 59 L 0 29.5 L 17 0 Z"/>
          </g>
        </g>
      </g>
      <path id="路径_1266" data-name="路径 1266" class="cls-3" d="M43.629,55.518a15.567,15.567,0,0,1-24.9,17.8,1.557,1.557,0,1,1,2.157-2.245A12.452,12.452,0,1,0,17.956,57.48l2.11.177a.778.778,0,0,1,.575,1.22L16.5,64.84a1.549,1.549,0,0,1-1.391.662,1.393,1.393,0,0,1-1.2-.9l-2.453-6.55A.778.778,0,0,1,12.251,57l2.491.209a15.567,15.567,0,0,1,28.887-1.693ZM28.744,52.755a1.557,1.557,0,0,1,1.552,1.44l0,.117v7.656l4.665,2.669a1.557,1.557,0,0,1,.634,2.016l-.056.109a1.557,1.557,0,0,1-2.016.634l-.109-.056-5.057-2.893a2.335,2.335,0,0,1-1.171-1.871l0-.156V54.312a1.557,1.557,0,0,1,1.557-1.557Z" transform="translate(1126.592 1652.473)"/>
    </g>
  </g>
</svg>
