<svg xmlns="http://www.w3.org/2000/svg" width="74" height="74" viewBox="0 0 74 74">
  <defs>
    <style>
      .cls-1, .cls-2 {
        fill: none;
      }

      .cls-3 {
        fill: #cde0ff;
      }

      .cls-4, .cls-5 {
        stroke: none;
      }

      .cls-5 {
        fill: #3c83f8;
      }
    </style>
  </defs>
  <g id="车辆检测服务" transform="translate(-764 -1575)">
    <rect id="矩形_1194" data-name="矩形 1194" class="cls-1" width="74" height="74" transform="translate(764 1575)"/>
    <g id="车辆检测服务-2" data-name="车辆检测服务" transform="translate(0 1)">
      <g id="组_1822" data-name="组 1822">
        <g id="组_1812" data-name="组 1812" transform="translate(74 -103)">
          <g id="组_1806" data-name="组 1806" transform="translate(6 15)">
            <g id="多边形_23" data-name="多边形 23" class="cls-2" transform="translate(687 1670)">
              <path class="cls-4" d="M51,0,68,29.5,51,59H17L0,29.5,17,0Z"/>
              <path class="cls-5" d="M 19.31156921386719 4 L 4.616653442382813 29.5 L 19.31156921386719 55 L 48.68843078613281 55 L 63.38334655761719 29.5 L 48.68843078613281 4 L 19.31156921386719 4 M 17 0 L 51 0 L 68 29.5 L 51 59 L 17 59 L 0 29.5 L 17 0 Z"/>
            </g>
          </g>
        </g>
        <path id="路径_1269" data-name="路径 1269" class="cls-3" d="M82.662,64.761A15.057,15.057,0,0,1,92.743,74.841l-14.4,4.322Zm-13.345,14.4a9,9,0,0,0,17.525,2.9L93.3,80.684A15.039,15.039,0,1,1,76.819,64.2l-1.383,6.461A8.991,8.991,0,0,0,69.317,79.163Z" transform="translate(722.7 1531.8)"/>
      </g>
    </g>
  </g>
</svg>
