<svg xmlns="http://www.w3.org/2000/svg" width="74" height="74" viewBox="0 0 74 74">
  <defs>
    <style>
      .cls-1, .cls-2 {
        fill: none;
      }

      .cls-3 {
        fill: #cde0ff;
      }

      .cls-4, .cls-5 {
        stroke: none;
      }

      .cls-5 {
        fill: #3c83f8;
      }
    </style>
  </defs>
  <g id="预警信息推送" transform="translate(-493 -1718)">
    <g id="组_1869" data-name="组 1869">
      <rect id="矩形_1206" data-name="矩形 1206" class="cls-1" width="74" height="74" transform="translate(493 1718)"/>
    </g>
    <g id="预警信息推送-2" data-name="预警信息推送" transform="translate(0 107)">
      <g id="建立车辆标准化档案" transform="translate(0 478)">
        <g id="系统评估服务" transform="translate(-573 -442)">
          <g id="组_1816" data-name="组 1816" transform="translate(-52 -103)">
            <g id="组_1809" data-name="组 1809" transform="translate(424 1)">
              <g id="组_1806" data-name="组 1806" transform="translate(10 14)">
                <g id="多边形_23" data-name="多边形 23" class="cls-2" transform="translate(687 1670)">
                  <path class="cls-4" d="M51,0,68,29.5,51,59H17L0,29.5,17,0Z"/>
                  <path class="cls-5" d="M 19.31156921386719 4 L 4.616653442382813 29.5 L 19.31156921386719 55 L 48.68843078613281 55 L 63.38334655761719 29.5 L 48.68843078613281 4 L 19.31156921386719 4 M 17 0 L 51 0 L 68 29.5 L 51 59 L 17 59 L 0 29.5 L 17 0 Z"/>
                </g>
              </g>
            </g>
          </g>
        </g>
      </g>
      <path id="路径_1279" data-name="路径 1279" class="cls-3" d="M46.68,95.232a12.847,12.847,0,0,1,12.986,12.7v10.54H61.68v2.76h-30v-2.76H33.7v-10.54A12.846,12.846,0,0,1,46.68,95.232Zm0,2.744a10.056,10.056,0,0,0-10.166,9.94l0,10.556h20.34l0-10.554a10.056,10.056,0,0,0-10.168-9.94Zm3.386,4.4-1.82,4.156H51.62l-5.4,8.386H44.4l2.048-5.308H42.664l3.122-7.236h4.28Z" transform="translate(483.32 1537.768)"/>
    </g>
  </g>
</svg>
