<svg xmlns="http://www.w3.org/2000/svg" width="1093" height="444.599" viewBox="0 0 1093 444.599">
  <defs>
    <style>
      .cls-1 {
        fill: #333;
        font-size: 18px;
      }

      .cls-1, .cls-5 {
        font-family: SourceHanSansSC-Regular, Source Han Sans SC;
      }

      .cls-2 {
        fill: #cde0ff;
      }

      .cls-3 {
        fill: #cbd5f3;
      }

      .cls-12, .cls-4 {
        fill: #3c83f8;
      }

      .cls-5 {
        fill: #3f59ae;
        font-size: 14px;
      }

      .cls-6, .cls-9 {
        fill: none;
        stroke-width: 2px;
      }

      .cls-6 {
        stroke: #cbd5f3;
      }

      .cls-7 {
        fill: #f3f8ff;
      }

      .cls-8 {
        fill: #445eb1;
      }

      .cls-9 {
        stroke: #cde0ff;
        stroke-dasharray: 2;
      }

      .cls-10 {
        fill: #f2f5f7;
      }

      .cls-11 {
        fill: #46b2e7;
      }

      .cls-12 {
        stroke: #3c83f8;
      }

      .cls-13, .cls-14 {
        stroke: none;
      }

      .cls-14 {
        fill: #3d4e87;
      }
    </style>
  </defs>
  <g id="评估体系架构图" transform="translate(-407 -2201)">
    <text id="残值模型算法" class="cls-1" transform="translate(690 2471)"><tspan x="-54" y="0">残值模型算法</tspan></text>
    <text id="二次评估" class="cls-1" transform="translate(1061 2365)"><tspan x="-36" y="0">二次评估</tspan></text>
    <text id="预警提醒" class="cls-1" transform="translate(1057 2590)"><tspan x="-36" y="0">预警提醒</tspan></text>
    <rect id="矩形_1213" data-name="矩形 1213" class="cls-2" width="319" height="2" rx="1" transform="translate(522 2400)"/>
    <rect id="矩形_1219" data-name="矩形 1219" class="cls-3" width="240" height="2" rx="1" transform="translate(1158 2400)"/>
    <path id="多边形_46" data-name="多边形 46" class="cls-4" d="M7.135,1.495a1,1,0,0,1,1.731,0l6.266,10.822a1,1,0,0,1-.865,1.5H1.734a1,1,0,0,1-.865-1.5Z" transform="matrix(0.875, -0.485, 0.485, 0.875, 774.074, 2396.666)"/>
    <path id="多边形_81" data-name="多边形 81" class="cls-4" d="M7.135,1.495a1,1,0,0,1,1.731,0l6.266,10.822a1,1,0,0,1-.865,1.5H1.734a1,1,0,0,1-.865-1.5Z" transform="matrix(0.875, -0.485, 0.485, 0.875, 576.074, 2396.666)"/>
    <path id="联合_34" data-name="联合 34" class="cls-2" d="M-6341.292,390.05H-6395a4,4,0,0,1-4-4V359a4,4,0,0,1,4-4h122a4,4,0,0,1,4,4v27.05a4,4,0,0,1-4,4h-53.708L-6334,402Z" transform="translate(7395.001 1846)"/>
    <text id="自动触发" class="cls-5" transform="translate(1061 2223)"><tspan x="-28" y="0">自动触发</tspan></text>
    <path id="路径_1297" data-name="路径 1297" class="cls-6" d="M7388.991,1936s-24.9-4.14-24.9,21.229v68.41s.735,15.692-14.359,15.692,13.743-3.385,14.359,10.974c-.718,14.974,0,91.59,0,91.59s.74,17.1,25.906,17.1" transform="translate(-6403 360)"/>
    <path id="路径_1300" data-name="路径 1300" class="cls-6" d="M7347.377,1936s23.9-4.14,23.9,21.229v68.41s-.735,15.692,14.359,15.692-13.743-3.385-14.359,10.974c.718,14.974,0,91.59,0,91.59s-.74,17.1-25.906,17.1" transform="translate(-6231.473 360)"/>
    <g id="组_1853" data-name="组 1853" transform="translate(-3 20)">
      <g id="多边形_48" data-name="多边形 48" class="cls-7" transform="translate(1024 2242)">
        <path class="cls-13" d="M 58.38365173339844 66.96666717529297 L 20.61634826660156 66.96666717529297 L 1.731732964515686 34.23333358764648 L 20.61634826660156 1.500000238418579 L 58.38365173339844 1.500000238418579 L 77.26826477050781 34.23333358764648 L 58.38365173339844 66.96666717529297 Z"/>
        <path class="cls-14" d="M 21.48269653320313 2.999992370605469 L 3.463462829589844 34.23333358764648 L 21.48269653320313 65.4666748046875 L 57.51730346679688 65.4666748046875 L 75.53653717041016 34.23333358764648 L 57.51730346679688 2.999992370605469 L 21.48269653320313 2.999992370605469 M 19.75 -7.62939453125e-06 L 59.25 -7.62939453125e-06 L 79 34.23333358764648 L 59.25 68.4666748046875 L 19.75 68.4666748046875 L 0 34.23333358764648 L 19.75 -7.62939453125e-06 Z"/>
      </g>
      <path id="路径_1298" data-name="路径 1298" class="cls-4" d="M24.59,47.8a1.949,1.949,0,0,0,1.95-1.95V41.951h3.926a1.955,1.955,0,1,0,0-3.91H26.54V36.086h3.926a1.952,1.952,0,1,0,0-3.9H27.514l2.7-2.7a1.954,1.954,0,1,0-2.764-2.763L24.86,29.306l-2.589-2.589a1.954,1.954,0,1,0-2.764,2.763l2.7,2.7H18.74a1.952,1.952,0,1,0,0,3.9h3.892v1.955H18.74a1.955,1.955,0,0,0,0,3.91h3.892v3.894A1.957,1.957,0,0,0,24.59,47.8Zm0,0M41.743,27.281a2.164,2.164,0,0,0-.273-.528.572.572,0,0,1-.042-.081l-.021.008a1.854,1.854,0,0,0-1.443-.689,1.879,1.879,0,0,0-1.885,1.874,1.859,1.859,0,0,0,.478,1.245A15.651,15.651,0,1,1,33.6,23.316a1.928,1.928,0,1,0,2.888-2.537v0a.177.177,0,0,1-.031-.026,1.731,1.731,0,0,0-.265-.2,19.31,19.31,0,1,0,5.55,6.733Zm0,0" transform="translate(1039.332 2240.521)"/>
    </g>
    <path id="多边形_49" data-name="多边形 49" class="cls-8" d="M10.135,1.495a1,1,0,0,1,1.731,0l9.266,16a1,1,0,0,1-.865,1.5H1.734a1,1,0,0,1-.865-1.5Z" transform="matrix(0.875, -0.485, 0.485, 0.875, 976.074, 2289.666)"/>
    <path id="多边形_55" data-name="多边形 55" class="cls-8" d="M7.135,1.495a1,1,0,0,1,1.731,0l6.266,10.822a1,1,0,0,1-.865,1.5H1.734a1,1,0,0,1-.865-1.5Z" transform="matrix(-0.875, -0.485, 0.485, -0.875, 1348.61, 2413.284)"/>
    <path id="多边形_80" data-name="多边形 80" class="cls-8" d="M7.135,1.495a1,1,0,0,1,1.731,0l6.266,10.822a1,1,0,0,1-.865,1.5H1.734a1,1,0,0,1-.865-1.5Z" transform="matrix(-0.875, -0.485, 0.485, -0.875, 1179.61, 2413.284)"/>
    <path id="多边形_50" data-name="多边形 50" class="cls-8" d="M10.135,1.495a1,1,0,0,1,1.731,0l9.266,16a1,1,0,0,1-.865,1.5H1.734a1,1,0,0,1-.865-1.5Z" transform="matrix(0.875, -0.485, 0.485, 0.875, 976.074, 2514.666)"/>
    <g id="组_1846" data-name="组 1846" transform="translate(-10 35)">
      <g id="路径_1310" data-name="路径 1310" class="cls-7" transform="translate(1027 2451)">
        <path class="cls-13" d="M 59.13572692871094 67.50008392333984 L 20.86426162719727 67.50008392333984 L 1.733826518058777 34.50004196166992 L 20.86426162719727 1.499997496604919 L 59.13572692871094 1.499997496604919 L 78.26617431640625 34.50004196166992 L 59.13572692871094 67.50008392333984 Z"/>
        <path class="cls-14" d="M 21.72852325439453 3 L 3.4676513671875 34.50004196166992 L 21.72850799560547 66.00008392333984 L 58.27146530151367 66.00008392333984 L 76.5323486328125 34.50004196166992 L 58.27146530151367 3 L 21.72852325439453 3 M 20 0 L 59.99998474121094 0 L 80 34.50004196166992 L 59.99998474121094 69.00008392333984 L 19.9999885559082 69.00008392333984 L 0 34.50004196166992 L 20 0 Z"/>
      </g>
      <path id="路径_1299" data-name="路径 1299" class="cls-4" d="M96.172,80.673l5.083-5.027-.056-.137A19.54,19.54,0,0,1,68.138,95.772L70.935,93l.4.514A15.632,15.632,0,0,0,98.858,81.368L96.546,82.7l-.377-2.024Zm-8.12-5.508L85.531,81.05H90.2L82.723,92.928H80.205l2.836-7.517H77.8l4.327-10.245ZM83.379,64a19.5,19.5,0,0,1,15.186,7.244l-2.8,2.766-.352-.447A15.632,15.632,0,0,0,67.9,85.717l2.311-1.332.357,1.921-5.1,5.047-.257-.606A19.54,19.54,0,0,1,83.379,64Z" transform="translate(983.169 2402)"/>
    </g>
    <path id="路径_1303" data-name="路径 1303" class="cls-9" d="M7808,2145.689V2292.6H7061.914L7061,2141" transform="translate(-6371 352.001)"/>
    <path id="多边形_57" data-name="多边形 57" class="cls-4" d="M7.135,1.495a1,1,0,0,1,1.731,0l6.266,10.822a1,1,0,0,1-.865,1.5H1.734a1,1,0,0,1-.865-1.5Z" transform="translate(685.574 2512.552) rotate(-120)"/>
    <text id="业务结束" class="cls-1" transform="translate(1257 2471)"><tspan x="-36" y="0">业务结束</tspan></text>
    <text id="更新模型数据库" class="cls-1" transform="translate(1437 2471)"><tspan x="-63" y="0">更新模型数据库</tspan></text>
    <text id="车辆价值评估" class="cls-1" transform="translate(879 2471)"><tspan x="-54" y="0">车辆价值评估</tspan></text>
    <g id="组_1850" data-name="组 1850" transform="translate(0 16)">
      <g id="多边形_77" data-name="多边形 77" class="cls-10" transform="translate(839 2350)">
        <path class="cls-13" d="M 59.13573837280273 67.50008392333984 L 20.86426162719727 67.50008392333984 L 1.733826518058777 34.50004196166992 L 20.86426162719727 1.499997496604919 L 59.13573837280273 1.499997496604919 L 78.26617431640625 34.50004196166992 L 59.13573837280273 67.50008392333984 Z"/>
        <path class="cls-14" d="M 21.72852325439453 3 L 3.4676513671875 34.50004196166992 L 21.72852325439453 66.00008392333984 L 58.27147674560547 66.00008392333984 L 76.5323486328125 34.50004196166992 L 58.27147674560547 3 L 21.72852325439453 3 M 20 0 L 60 0 L 80 34.50004196166992 L 60 69.00008392333984 L 20 69.00008392333984 L 0 34.50004196166992 L 20 0 Z"/>
      </g>
      <path id="路径_1294" data-name="路径 1294" class="cls-11" d="M22.944,45.173a1.785,1.785,0,0,0,1.786-1.786V39.819h3.6a1.791,1.791,0,1,0,0-3.582h-3.6V34.446h3.6a1.789,1.789,0,1,0,0-3.577h-2.7l2.47-2.475a1.79,1.79,0,1,0-2.532-2.532l-2.37,2.372-2.372-2.372a1.79,1.79,0,1,0-2.532,2.532l2.472,2.475H17.585a1.789,1.789,0,1,0,0,3.577H21.15v1.791H17.585a1.791,1.791,0,0,0,0,3.582H21.15v3.568a1.793,1.793,0,0,0,1.794,1.786Zm0,0M38.659,26.378a1.983,1.983,0,0,0-.25-.484.524.524,0,0,1-.038-.074l-.019.007A1.7,1.7,0,0,0,37.03,25.2,1.721,1.721,0,0,0,35.3,26.914a1.7,1.7,0,0,0,.438,1.141A14.339,14.339,0,1,1,31.2,22.746a1.767,1.767,0,1,0,2.646-2.325v0a.162.162,0,0,1-.029-.024,1.586,1.586,0,0,0-.243-.186,17.691,17.691,0,1,0,5.085,6.169Zm0,0" transform="translate(856.268 2350.29)"/>
    </g>
    <g id="组_1836" data-name="组 1836" transform="translate(452.999 18)">
      <path id="联合_30" data-name="联合 30" class="cls-2" d="M-6340.167,399H-6395a4,4,0,0,1-4-4V359a4,4,0,0,1,4-4h122a4,4,0,0,1,4,4v36a4,4,0,0,1-4,4h-55.5l-5.833,12Z" transform="translate(6760.002 1924)"/>
      <text id="自动评估" class="cls-5" transform="translate(426.001 2307)"><tspan x="-28" y="0">自动评估</tspan></text>
    </g>
    <g id="组_1837" data-name="组 1837" transform="translate(453 -16)">
      <path id="联合_31" data-name="联合 31" class="cls-2" d="M4,59a4,4,0,0,1-4-4V19a4,4,0,0,1,4-4H58L65,3l7,12h54a4,4,0,0,1,4,4V55a4,4,0,0,1-4,4Z" transform="translate(361 2497)"/>
      <text id="评估师评估" class="cls-5" transform="translate(426 2540)"><tspan x="-35" y="0">评估师评估</tspan></text>
    </g>
    <g id="组_1851" data-name="组 1851" transform="translate(5 16)">
      <g id="多边形_78" data-name="多边形 78" class="cls-7" transform="translate(645 2350)">
        <path class="cls-13" d="M 59.13573837280273 67.50008392333984 L 20.86426162719727 67.50008392333984 L 1.733826518058777 34.50004196166992 L 20.86426162719727 1.499997496604919 L 59.13573837280273 1.499997496604919 L 78.26617431640625 34.50004196166992 L 59.13573837280273 67.50008392333984 Z"/>
        <path class="cls-14" d="M 21.72852325439453 3 L 3.4676513671875 34.50004196166992 L 21.72852325439453 66.00008392333984 L 58.27147674560547 66.00008392333984 L 76.5323486328125 34.50004196166992 L 58.27147674560547 3 L 21.72852325439453 3 M 20 0 L 60 0 L 80 34.50004196166992 L 60 69.00008392333984 L 20 69.00008392333984 L 0 34.50004196166992 L 20 0 Z"/>
      </g>
      <g id="组_1828" data-name="组 1828" transform="translate(667.222 2367.692)">
        <path id="路径_1291" data-name="路径 1291" class="cls-12" d="M295.14,225.043a1.085,1.085,0,0,1,.089,1.492l-14.084,13.018a1.177,1.177,0,0,1-1.581-1.687l14.084-13.018A1.083,1.083,0,0,1,295.14,225.043Z" transform="translate(-269.619 -217.78)"/>
        <path id="路径_1292" data-name="路径 1292" class="cls-12" d="M33.265,27.136H2.273A2.278,2.278,0,0,0,0,29.409V53.723A2.278,2.278,0,0,0,2.273,56h12.2V59.1H6.163a1.154,1.154,0,0,0,0,2.309H29.375a1.152,1.152,0,0,0,1.154-1.154A1.175,1.175,0,0,0,29.375,59.1H21.152V56h12.13a2.278,2.278,0,0,0,2.273-2.273V29.392A2.3,2.3,0,0,0,33.265,27.136Zm0,25.752h-.018a.788.788,0,0,1-.781.781H3.126a.792.792,0,0,1-.781-.8V30.226a.788.788,0,0,1,.781-.781H32.483a.788.788,0,0,1,.781.781Z" transform="translate(0 -27.136)"/>
        <path id="路径_1293" data-name="路径 1293" class="cls-12" d="M233.02,231.544a4.156,4.156,0,1,1,4.156-4.156A4.161,4.161,0,0,1,233.02,231.544Zm0-6.021a1.847,1.847,0,1,0,1.847,1.847A1.846,1.846,0,0,0,233.02,225.523Zm11.366,12.965a4.156,4.156,0,1,1,4.156-4.156A4.161,4.161,0,0,1,244.386,238.488Zm0-6.021a1.847,1.847,0,1,0,1.847,1.847A1.846,1.846,0,0,0,244.386,232.467Z" transform="translate(-220.925 -216.43)"/>
      </g>
    </g>
    <text id="车辆信息采集" class="cls-1" transform="translate(484 2471)"><tspan x="-54" y="0">车辆信息采集</tspan></text>
    <g id="组_1831" data-name="组 1831" transform="translate(45.999 13)">
      <path id="联合_30-2" data-name="联合 30" class="cls-2" d="M-6329.75,399H-6395a4,4,0,0,1-4-4V359a4,4,0,0,1,4-4h148a4,4,0,0,1,4,4v36a4,4,0,0,1-4,4h-65.25l-8.75,15Z" transform="translate(6760.001 1924)"/>
      <text id="车辆历史_车辆现状" data-name="车辆历史、车辆现状" class="cls-5" transform="translate(439 2307)"><tspan x="-63" y="0">车辆历史、车辆现状</tspan></text>
    </g>
    <g id="组_1832" data-name="组 1832" transform="translate(46 -10)">
      <path id="联合_31-2" data-name="联合 31" class="cls-2" d="M4,59a4,4,0,0,1-4-4V19a4,4,0,0,1,4-4h65.25L78,0l8.75,15H152a4,4,0,0,1,4,4V55a4,4,0,0,1-4,4Z" transform="translate(361 2497)"/>
      <text id="检测设备_评估师" data-name="检测设备、评估师" class="cls-5" transform="translate(439 2540)"><tspan x="-56" y="0">检测设备、评估师</tspan></text>
    </g>
    <g id="组_1852" data-name="组 1852" transform="translate(10 16)">
      <g id="多边形_79" data-name="多边形 79" class="cls-7" transform="translate(434 2350)">
        <path class="cls-13" d="M 59.13365173339844 67.83333587646484 L 20.86634826660156 67.83333587646484 L 1.731732964515686 34.66666793823242 L 20.86634826660156 1.500001311302185 L 59.13365173339844 1.500001311302185 L 78.26826477050781 34.66666793823242 L 59.13365173339844 67.83333587646484 Z"/>
        <path class="cls-14" d="M 21.73270034790039 3 L 3.463470458984375 34.66666793823242 L 21.73270034790039 66.33333587646484 L 58.26730346679688 66.33333587646484 L 76.53652954101563 34.66666793823242 L 58.26730346679688 3 L 21.73270034790039 3 M 20 0 L 60 0 L 80 34.66666793823242 L 60 69.33333587646484 L 20 69.33333587646484 L 0 34.66666793823242 L 20 0 Z"/>
      </g>
      <g id="组_1829" data-name="组 1829" transform="translate(454.444 2367.778)">
        <path id="路径_1295" data-name="路径 1295" class="cls-4" d="M17.46,32.407l-1.928-2.291a2.794,2.794,0,0,0-2.039-.95H6.369A6.37,6.37,0,0,1,0,22.825V6.37A6.37,6.37,0,0,1,6.369,0H32.63a6.37,6.37,0,0,1,6.481,6.37V22.825a6.342,6.342,0,0,1-6.342,6.342H25.45a2.794,2.794,0,0,0-2.067.978l-1.844,2.235a2.626,2.626,0,0,1-4.079.028ZM6.649,25.144h8.688a2.794,2.794,0,0,1,2.039.922,2.794,2.794,0,0,0,4.107,0,2.626,2.626,0,0,1,2.067-.922h8.772a2.794,2.794,0,0,0,2.794-2.794V6.65A2.794,2.794,0,0,0,32.323,4H6.649A2.626,2.626,0,0,0,3.995,6.789V22.518a2.794,2.794,0,0,0,2.654,2.626Z" transform="translate(0 0)"/>
        <path id="路径_1296" data-name="路径 1296" class="cls-4" d="M229.19,257.47c-2.458,0-3.939-1.844-5.587-3.8l-1.2-1.481c-.5-.587-.978-1.2-1.425-1.788s-2.179-2.794-2.794-2.794-.95,0-2.794,4.33l-.81,1.816-3.66-1.732.81-1.816c2.039-4.582,2.989-6.677,6.509-6.677,2.542,0,4.274,2.263,5.95,4.442.419.559.866,1.145,1.285,1.648s.894,1.09,1.285,1.592c.978,1.2,1.816,2.263,2.347,2.263,0,0,1.062,0,2.57-3.576l.782-1.844,3.688,1.509-.782,1.816C234.777,252.944,232.794,257.47,229.19,257.47Z" transform="translate(-204.047 -235.595)"/>
      </g>
    </g>
    <g id="组_1848" data-name="组 1848" transform="translate(-15 16)">
      <g id="路径_1320" data-name="路径 1320" class="cls-7" transform="translate(1412 2350)">
        <path class="cls-13" d="M 59.13572692871094 67.50008392333984 L 20.86426162719727 67.50008392333984 L 1.733826518058777 34.50004196166992 L 20.86426162719727 1.499997496604919 L 59.13572692871094 1.499997496604919 L 78.26617431640625 34.50004196166992 L 59.13572692871094 67.50008392333984 Z"/>
        <path class="cls-14" d="M 21.72852325439453 3 L 3.4676513671875 34.50004196166992 L 21.72850799560547 66.00008392333984 L 58.27146530151367 66.00008392333984 L 76.5323486328125 34.50004196166992 L 58.27146530151367 3 L 21.72852325439453 3 M 20 0 L 59.99998474121094 0 L 80 34.50004196166992 L 59.99998474121094 69.00008392333984 L 19.9999885559082 69.00008392333984 L 0 34.50004196166992 L 20 0 Z"/>
      </g>
      <g id="组_1847" data-name="组 1847" transform="translate(1436 2368.577)">
        <path id="路径_1311" data-name="路径 1311" class="cls-12" d="M77.438,50.519A13.65,13.65,0,0,1,87.4,54.87h-3.3a1.24,1.24,0,0,0,0,2.48h6.035a1.24,1.24,0,0,0,1.24-1.24V49.778a1.24,1.24,0,1,0-2.48,0v3.074a16.071,16.071,0,0,0-27.456,9.637,1.24,1.24,0,1,0,2.468.248A13.542,13.542,0,0,1,77.438,50.519Zm14.882,13.79a1.24,1.24,0,0,0-1.353,1.116A13.588,13.588,0,0,1,68.122,74h3.316a1.24,1.24,0,1,0,0-2.48H65.4a1.24,1.24,0,0,0-1.24,1.24V79.1a1.24,1.24,0,0,0,2.48,0V76.016A16.071,16.071,0,0,0,93.435,65.662,1.24,1.24,0,0,0,92.319,64.309Z" transform="translate(-61.441 -48.04)"/>
        <path id="路径_1312" data-name="路径 1312" class="cls-12" d="M323.489,387.55h-11.9a1.24,1.24,0,0,0,0,2.48h11.9a1.24,1.24,0,1,0,0-2.48Zm0,5.922h-11.9a1.24,1.24,0,1,0,0,2.48h11.9a1.24,1.24,0,1,0,0-2.48Z" transform="translate(-301.531 -375.521)"/>
      </g>
    </g>
    <g id="组_1855" data-name="组 1855" transform="translate(-16)">
      <g id="组_1849" data-name="组 1849" transform="translate(0 16)">
        <g id="多边形_75" data-name="多边形 75" class="cls-7" transform="translate(1233 2350)">
          <path class="cls-13" d="M 59.13365173339844 67.83333587646484 L 20.86634826660156 67.83333587646484 L 1.731732964515686 34.66666793823242 L 20.86634826660156 1.500001311302185 L 59.13365173339844 1.500001311302185 L 78.26826477050781 34.66666793823242 L 59.13365173339844 67.83333587646484 Z"/>
          <path class="cls-14" d="M 21.73270034790039 3 L 3.463470458984375 34.66666793823242 L 21.73270034790039 66.33333587646484 L 58.26730346679688 66.33333587646484 L 76.53652954101563 34.66666793823242 L 58.26730346679688 3 L 21.73270034790039 3 M 20 0 L 60 0 L 80 34.66666793823242 L 60 69.33333587646484 L 20 69.33333587646484 L 0 34.66666793823242 L 20 0 Z"/>
        </g>
      </g>
      <g id="组_1854" data-name="组 1854" transform="translate(1256 2480) rotate(-90)">
        <path id="路径_1313" data-name="路径 1313" class="cls-12" d="M91,34.286H67c-1.714,0-3-.857-3-2.571V3.643C64,1.929,65.286,0,67,0H83.286L94,8.786V31.714C94,33.643,92.714,34.286,91,34.286ZM67.857,2.143a1.69,1.69,0,0,0-1.714,1.714V30.643c0,.643.429,1.5,1.071,1.5H90.357c.857,0,1.5-1.071,1.5-1.929V9.857L82.643,2.143Z"/>
        <path id="路径_1314" data-name="路径 1314" class="cls-12" d="M588.857,72.571H576V64h2.143v6.429h10.714Z" transform="translate(-494.857 -60.857)"/>
        <path id="路径_1315" data-name="路径 1315" class="cls-12" d="M448,384h4.286v9.833H448Z" transform="translate(-371.143 -368.143)"/>
        <path id="路径_1316" data-name="路径 1316" class="cls-12" d="M314.057,520.143l-6.857-6.857L308.7,512l5.357,5.357L319.414,512l1.5,1.286Z" transform="translate(-235.057 -491.857)"/>
      </g>
    </g>
    <path id="路径_1317" data-name="路径 1317" class="cls-4" d="M95.605,128a3.971,3.971,0,0,1,3.641,2.045l.569,1.212q2.519,5.414,4.024,9.581h3.54a1.805,1.805,0,0,1,1.953,1.6,1.766,1.766,0,0,1-1.765,1.6l-.188.007H104.9a23.557,23.557,0,0,1,1.173,6.419,112.549,112.549,0,0,1-.932,13.154,3.7,3.7,0,0,1-3.888,2.893h-6.3a3.8,3.8,0,0,1-3.831-2.58l-.674-2.769H72.217l-.674,2.769a3.8,3.8,0,0,1-3.831,2.58H61.428a3.7,3.7,0,0,1-3.889-2.906l-.232-2.088a109.167,109.167,0,0,1-.718-11.053,23.354,23.354,0,0,1,1.268-6.419H55.286a1.805,1.805,0,0,1-1.953-1.6,1.766,1.766,0,0,1,1.765-1.6l.188-.007h3.659q1.662-4.558,4.495-10.757A3.959,3.959,0,0,1,67.1,128Zm5.271,16.048H61.894q-.586,1.789-.926,3.209H68.31v3.21H60.5a114.407,114.407,0,0,0,.856,12.17l.076.668h6.283l1.3-5.349H93.652l1.3,5.349h6.3a110.053,110.053,0,0,0,.913-12.838H94.356v-3.21h7.4q-.318-1.442-.878-3.209ZM95.605,131.21H67.1l-.508,1.119q-2.164,4.8-3.559,8.51H99.756q-1.4-3.72-3.614-8.486Z" transform="translate(403.667 2109.514)"/>
    <g id="组_1856" data-name="组 1856" transform="translate(296 2498)">
      <path id="路径_1318" data-name="路径 1318" class="cls-4" d="M189,66c-6.7,0-11.2,4.667-11.2,11.707v.122a14.176,14.176,0,0,0,2.879,8.72l.028.035L173.8,91.669a4.422,4.422,0,0,0-1.8,3.561v9.486a2.948,2.948,0,0,0,2.948,2.948h28.1A2.948,2.948,0,0,0,206,104.717V95.177a4.423,4.423,0,0,0-1.8-3.508l-6.909-5.085.028-.035a14.206,14.206,0,0,0,2.879-8.842C200.2,70.667,195.7,66,189,66Zm0,2.948c5.047,0,8.249,3.323,8.249,8.76a10.744,10.744,0,0,1-3.158,7.995,1.474,1.474,0,0,0,.12,2.276l8.24,6.065a1.474,1.474,0,0,1,.6,1.187v9.486h-28.1V95.231a1.474,1.474,0,0,1,.6-1.187l8.241-6.065a1.474,1.474,0,0,0,.144-2.254l-.024-.022a10.743,10.743,0,0,1-3.158-8C180.751,72.271,183.953,68.948,189,68.948Z" transform="translate(0)"/>
      <path id="路径_1319" data-name="路径 1319" class="cls-4" d="M491.948,614v7.286a1.474,1.474,0,1,1-2.948,0V614Z" transform="translate(-301.425 -521.075)"/>
    </g>
  </g>
</svg>
