<svg xmlns="http://www.w3.org/2000/svg" width="584.603" height="995" viewBox="0 0 584.603 995">
  <defs>
    <style>
      .cls-1 {
        fill: #333;
        font-size: 20px;
      }

      .cls-1, .cls-11 {
        font-family: SourceHanSansSC-Regular, Source Han Sans SC;
      }

      .cls-2 {
        fill: #cde0ff;
      }

      .cls-3 {
        fill: #cbd5f3;
      }

      .cls-4 {
        fill: #f3f8ff;
      }

      .cls-10, .cls-5 {
        fill: #3c83f8;
      }

      .cls-12, .cls-6 {
        fill: none;
        stroke-width: 2px;
      }

      .cls-6 {
        stroke: #cbd5f3;
      }

      .cls-7 {
        fill: #445eb1;
      }

      .cls-8 {
        fill: #f2f5f7;
      }

      .cls-9 {
        fill: #46b2e7;
      }

      .cls-10 {
        stroke: #3c83f8;
      }

      .cls-11 {
        fill: #3f59ae;
        font-size: 18px;
      }

      .cls-12 {
        stroke: #cde0ff;
        stroke-dasharray: 2;
      }

      .cls-13, .cls-14 {
        stroke: none;
      }

      .cls-14 {
        fill: #3d4e87;
      }
    </style>
  </defs>
  <g id="评估体系架构图" transform="translate(-64 -3282)">
    <text id="残值模型算法" class="cls-1" transform="translate(375 3583)"><tspan x="-60" y="0">残值模型算法</tspan></text>
    <rect id="矩形_1213" data-name="矩形 1213" class="cls-2" width="39" height="2" rx="1" transform="translate(374 3476) rotate(-90)"/>
    <rect id="矩形_1232" data-name="矩形 1232" class="cls-2" width="39" height="2" rx="1" transform="translate(374 3634) rotate(-90)"/>
    <rect id="矩形_1234" data-name="矩形 1234" class="cls-3" width="39" height="2" rx="1" transform="translate(376 4016) rotate(-90)"/>
    <rect id="矩形_1235" data-name="矩形 1235" class="cls-3" width="39" height="2" rx="1" transform="translate(376 4169) rotate(-90)"/>
    <g id="组_1853" data-name="组 1853" transform="translate(229 3822)">
      <g id="多边形_48" data-name="多边形 48" class="cls-4">
        <path class="cls-13" d="M 57.63365173339844 66.09999847412109 L 20.36634826660156 66.09999847412109 L 1.731732964515686 33.79999923706055 L 20.36634826660156 1.499999284744263 L 57.63365173339844 1.499999284744263 L 76.26826477050781 33.79999923706055 L 57.63365173339844 66.09999847412109 Z"/>
        <path class="cls-14" d="M 21.23269653320313 3 L 3.463462829589844 33.79999923706055 L 21.23269653320313 64.59999847412109 L 56.76730346679688 64.59999847412109 L 74.53653717041016 33.79999923706055 L 56.76730346679688 3 L 21.23269653320313 3 M 19.5 0 L 58.5 0 L 78 33.79999923706055 L 58.5 67.59999847412109 L 19.5 67.59999847412109 L 0 33.79999923706055 L 19.5 0 Z"/>
      </g>
      <path id="路径_1298" data-name="路径 1298" class="cls-5" d="M24.341,47.4a1.924,1.924,0,0,0,1.925-1.925V41.629h3.876a1.93,1.93,0,1,0,0-3.86H26.266v-1.93h3.876a1.928,1.928,0,1,0,0-3.855H27.229l2.662-2.667a1.929,1.929,0,1,0-2.729-2.728l-2.554,2.556-2.557-2.556a1.929,1.929,0,1,0-2.729,2.728l2.664,2.667H18.566a1.928,1.928,0,1,0,0,3.855h3.843v1.93H18.566a1.93,1.93,0,0,0,0,3.86h3.843v3.845A1.932,1.932,0,0,0,24.341,47.4Zm0,0M41.277,27.144a2.137,2.137,0,0,0-.269-.521.565.565,0,0,1-.041-.08l-.021.008a1.831,1.831,0,0,0-1.424-.68,1.855,1.855,0,0,0-1.861,1.851,1.835,1.835,0,0,0,.472,1.229,15.453,15.453,0,1,1-4.895-5.721,1.9,1.9,0,1,0,2.852-2.505v0a.174.174,0,0,1-.031-.026,1.709,1.709,0,0,0-.262-.2,19.066,19.066,0,1,0,5.48,6.648Zm0,0" transform="translate(15.075 -1.67)"/>
    </g>
    <g id="组_1891" data-name="组 1891" transform="translate(0.326 1)">
      <path id="路径_1325" data-name="路径 1325" class="cls-6" d="M41.625.239S17.867-3.711,17.867,20.5V93.772s.7,12.974-13.7,12.974c1.415.684,13.113-1.23,13.7,12.472-.686,14.288,0,79.395,0,79.395s.706,16.322,24.72,16.322" transform="translate(483.421 3747.045) rotate(90)"/>
      <path id="多边形_94" data-name="多边形 94" class="cls-7" d="M9.631,1.495a1,1,0,0,1,1.731,0l8.762,15.134a1,1,0,0,1-.865,1.5H1.734a1,1,0,0,1-.865-1.5Z" transform="translate(489.226 3779.207) rotate(61)"/>
      <path id="多边形_95" data-name="多边形 95" class="cls-7" d="M9.631,1.495a1,1,0,0,1,1.731,0l8.762,15.134a1,1,0,0,1-.865,1.5H1.734a1,1,0,0,1-.865-1.5Z" transform="translate(274.531 3779.207) rotate(61)"/>
    </g>
    <g id="组_1893" data-name="组 1893" transform="translate(259.187 3922.211)">
      <path id="路径_1325-2" data-name="路径 1325" class="cls-6" d="M37.459,214.7S13.7,218.645,13.7,194.439V121.162s.7-12.974-13.7-12.974c1.415-.684,13.113,1.23,13.7-12.472-.686-14.288,0-79.395,0-79.395S14.407,0,38.421,0" transform="translate(9.813 55.146) rotate(-90)"/>
    </g>
    <g id="组_1846" data-name="组 1846" transform="translate(446 3822)">
      <g id="路径_1310" data-name="路径 1310" class="cls-4">
        <path class="cls-13" d="M 57.63572692871094 65.77508544921875 L 20.36426162719727 65.77508544921875 L 1.733826518058777 33.63753890991211 L 20.36426162719727 1.500005602836609 L 57.63572692871094 1.500005602836609 L 76.26617431640625 33.63753890991211 L 57.63572692871094 65.77508544921875 Z"/>
        <path class="cls-14" d="M 21.22851943969727 3 L 3.4676513671875 33.63753890991211 L 21.22850799560547 64.27507781982422 L 56.77146911621094 64.27507781982422 L 74.5323486328125 33.63753890991211 L 56.77146911621094 3 L 21.22851943969727 3 M 19.5 0 L 58.49998474121094 0 L 78 33.63753890991211 L 58.49998474121094 67.27507781982422 L 19.4999885559082 67.27507781982422 L 0 33.63753890991211 L 19.5 0 Z"/>
      </g>
      <path id="路径_1299" data-name="路径 1299" class="cls-5" d="M95.364,80.256l4.956-4.9-.054-.133A19.052,19.052,0,0,1,68.03,94.978l2.727-2.7.395.5a15.241,15.241,0,0,0,26.83-11.845l-2.254,1.3-.367-1.973Zm-7.917-5.37-2.458,5.737h4.556L82.251,92.2H79.8l2.765-7.329H77.447l4.219-9.989ZM82.89,64A19.016,19.016,0,0,1,97.7,71.063l-2.727,2.7-.343-.435A15.241,15.241,0,0,0,67.8,85.174l2.254-1.3.348,1.873-4.972,4.921-.25-.591A19.052,19.052,0,0,1,82.89,64Z" transform="translate(-44.331 -49.375)"/>
    </g>
    <text id="车辆价值评估" class="cls-1" transform="translate(376 3740)"><tspan x="-60" y="0">车辆价值评估</tspan></text>
    <text id="业务结束" class="cls-1" transform="translate(377 4119)"><tspan x="-40" y="0">业务结束</tspan></text>
    <text id="更新模型数据库" class="cls-1" transform="translate(377 4271)"><tspan x="-70" y="0">更新模型数据库</tspan></text>
    <text id="二次评估" class="cls-1" transform="translate(268 3923)"><tspan x="-40" y="0">二次评估</tspan></text>
    <text id="预警提醒" class="cls-1" transform="translate(485 3923)"><tspan x="-40" y="0">预警提醒</tspan></text>
    <g id="组_1850" data-name="组 1850" transform="translate(336.532 3642.099)">
      <g id="多边形_77" data-name="多边形 77" class="cls-8" transform="translate(0.468 -0.099)">
        <path class="cls-13" d="M 57.63752365112305 65.5 L 20.36247634887695 65.5 L 1.735611438751221 33.5 L 20.36247634887695 1.5 L 57.63752365112305 1.5 L 76.26438903808594 33.5 L 57.63752365112305 65.5 Z"/>
        <path class="cls-14" d="M 21.2249641418457 3 L 3.471237182617188 33.5 L 21.2249641418457 64 L 56.77503204345703 64 L 74.52876281738281 33.5 L 56.77503204345703 3 L 21.2249641418457 3 M 19.5 0 L 58.5 0 L 78 33.5 L 58.5 67 L 19.5 67 L 0 33.5 L 19.5 0 Z"/>
      </g>
      <path id="路径_1294" data-name="路径 1294" class="cls-9" d="M22.594,44.615a1.751,1.751,0,0,0,1.751-1.752v-3.5h3.527a1.756,1.756,0,1,0,0-3.512H24.345V34.1h3.527a1.754,1.754,0,1,0,0-3.508H25.221l2.422-2.427A1.755,1.755,0,1,0,25.16,25.68l-2.324,2.326L20.51,25.68a1.755,1.755,0,1,0-2.483,2.482l2.424,2.427H17.339a1.754,1.754,0,1,0,0,3.508h3.5v1.756h-3.5a1.756,1.756,0,0,0,0,3.512h3.5v3.5a1.758,1.758,0,0,0,1.759,1.752Zm0,0M38,26.186a1.944,1.944,0,0,0-.245-.474.514.514,0,0,1-.037-.072l-.019.007a1.666,1.666,0,0,0-1.3-.619,1.688,1.688,0,0,0-1.693,1.684,1.67,1.67,0,0,0,.43,1.119,14.06,14.06,0,1,1-4.454-5.206,1.732,1.732,0,1,0,2.595-2.279v0a.159.159,0,0,1-.028-.023,1.555,1.555,0,0,0-.238-.182A17.347,17.347,0,1,0,38,26.186Zm0,0" transform="translate(16.573 -0.002)"/>
    </g>
    <g id="组_1851" data-name="组 1851" transform="translate(336.033 3484.858)">
      <g id="多边形_78" data-name="多边形 78" class="cls-4" transform="translate(-0.033 0.142)">
        <path class="cls-13" d="M 57.63752365112305 65.5 L 20.36247634887695 65.5 L 1.735611438751221 33.5 L 20.36247634887695 1.5 L 57.63752365112305 1.5 L 76.26438903808594 33.5 L 57.63752365112305 65.5 Z"/>
        <path class="cls-14" d="M 21.2249641418457 3 L 3.471237182617188 33.5 L 21.2249641418457 64 L 56.77503204345703 64 L 74.52876281738281 33.5 L 56.77503204345703 3 L 21.2249641418457 3 M 19.5 0 L 58.5 0 L 78 33.5 L 58.5 67 L 19.5 67 L 0 33.5 L 19.5 0 Z"/>
      </g>
      <g id="组_1828" data-name="组 1828" transform="translate(21.424 17.481)">
        <path id="路径_1291" data-name="路径 1291" class="cls-10" d="M294.865,225.036a1.066,1.066,0,0,1,.087,1.466l-13.839,12.792a1.157,1.157,0,0,1-1.553-1.658L293.4,224.844A1.064,1.064,0,0,1,294.865,225.036Z" transform="translate(-269.788 -217.899)"/>
        <path id="路径_1292" data-name="路径 1292" class="cls-10" d="M32.687,27.136H2.234A2.238,2.238,0,0,0,0,29.37V53.261a2.238,2.238,0,0,0,2.234,2.234H14.223v3.054H6.056a1.134,1.134,0,1,0,0,2.269H28.865A1.132,1.132,0,0,0,30,59.683a1.155,1.155,0,0,0-1.134-1.134h-8.08V55.495H32.7a2.238,2.238,0,0,0,2.234-2.234V29.352A2.261,2.261,0,0,0,32.687,27.136Zm0,25.3h-.017a.775.775,0,0,1-.768.768H3.071a.778.778,0,0,1-.768-.785V30.173a.775.775,0,0,1,.768-.768H31.919a.775.775,0,0,1,.768.768Z" transform="translate(0 -27.136)"/>
        <path id="路径_1293" data-name="路径 1293" class="cls-10" d="M232.948,231.4a4.084,4.084,0,1,1,4.084-4.084A4.089,4.089,0,0,1,232.948,231.4Zm0-5.916a1.815,1.815,0,1,0,1.815,1.815A1.814,1.814,0,0,0,232.948,225.483Zm11.169,12.74a4.084,4.084,0,1,1,4.084-4.084A4.089,4.089,0,0,1,244.117,238.223Zm0-5.916a1.815,1.815,0,1,0,1.815,1.815A1.814,1.814,0,0,0,244.117,232.307Z" transform="translate(-221.063 -216.548)"/>
      </g>
    </g>
    <text id="车辆信息采集" class="cls-1" transform="translate(375 3423)"><tspan x="-60" y="0">车辆信息采集</tspan></text>
    <g id="组_1852" data-name="组 1852" transform="translate(336.033 3325.175)">
      <g id="多边形_79" data-name="多边形 79" class="cls-4" transform="translate(-0.033 -0.174)">
        <path class="cls-13" d="M 57.63752365112305 65.5 L 20.36247634887695 65.5 L 1.735611438751221 33.5 L 20.36247634887695 1.5 L 57.63752365112305 1.5 L 76.26438903808594 33.5 L 57.63752365112305 65.5 Z"/>
        <path class="cls-14" d="M 21.2249641418457 3 L 3.471237182617188 33.5 L 21.2249641418457 64 L 56.77503204345703 64 L 74.52876281738281 33.5 L 56.77503204345703 3 L 21.2249641418457 3 M 19.5 0 L 58.5 0 L 78 33.5 L 58.5 67 L 19.5 67 L 0 33.5 L 19.5 0 Z"/>
      </g>
      <g id="组_1829" data-name="组 1829" transform="translate(19.976 17.18)">
        <path id="路径_1295" data-name="路径 1295" class="cls-5" d="M17.06,31.665l-1.883-2.238a2.73,2.73,0,0,0-1.993-.928H6.224A6.224,6.224,0,0,1,0,22.3V6.224A6.224,6.224,0,0,1,6.224,0H31.882a6.224,6.224,0,0,1,6.333,6.224V22.3a6.2,6.2,0,0,1-6.2,6.2H24.867a2.73,2.73,0,0,0-2.02.955l-1.8,2.184a2.566,2.566,0,0,1-3.985.027ZM6.5,24.568h8.489a2.73,2.73,0,0,1,1.993.9,2.73,2.73,0,0,0,4.013,0,2.566,2.566,0,0,1,2.02-.9h8.571a2.73,2.73,0,0,0,2.73-2.73V6.5A2.73,2.73,0,0,0,31.582,3.9H6.5A2.566,2.566,0,0,0,3.9,6.634V22A2.73,2.73,0,0,0,6.5,24.568Z" transform="translate(0 0)"/>
        <path id="路径_1296" data-name="路径 1296" class="cls-5" d="M228.771,257.15c-2.4,0-3.849-1.8-5.459-3.712l-1.174-1.447c-.491-.573-.955-1.174-1.392-1.747s-2.129-2.73-2.73-2.73-.928,0-2.73,4.231l-.792,1.774-3.576-1.692.792-1.774c1.993-4.477,2.921-6.524,6.36-6.524,2.484,0,4.176,2.211,5.814,4.34.409.546.846,1.119,1.256,1.61s.873,1.065,1.256,1.556c.955,1.174,1.774,2.211,2.293,2.211,0,0,1.037,0,2.511-3.494l.764-1.8,3.6,1.474L234.8,251.2C234.23,252.729,232.292,257.15,228.771,257.15Z" transform="translate(-204.204 -235.776)"/>
      </g>
    </g>
    <g id="组_1855" data-name="组 1855" transform="translate(343 4027)">
      <g id="组_1849" data-name="组 1849" transform="translate(0 0)">
        <g id="多边形_75" data-name="多边形 75" class="cls-4">
          <path class="cls-13" d="M 51.05672836303711 58.5 L 18.17403793334961 58.5 L 1.731733083724976 30 L 18.17403793334961 1.5 L 51.05672836303711 1.5 L 67.49903106689453 30 L 51.05672836303711 58.5 Z"/>
          <path class="cls-14" d="M 19.04037475585938 3 L 3.463447570800781 30 L 19.04037475585938 57 L 50.19039154052734 57 L 65.76730346679688 30 L 50.19039154052734 3 L 19.04037475585938 3 M 17.30768966674805 0 L 51.92307662963867 0 L 69.23075866699219 30 L 51.92307662963867 60 L 17.30768966674805 60 L -7.62939453125e-06 30 L 17.30768966674805 0 Z"/>
        </g>
      </g>
      <g id="组_1854" data-name="组 1854" transform="translate(19.904 43.269) rotate(-90)">
        <path id="路径_1313" data-name="路径 1313" class="cls-10" d="M23.365,29.67H2.6c-1.484,0-2.6-.742-2.6-2.225V3.152C0,1.669,1.113,0,2.6,0H16.69l9.272,7.6V27.445C25.962,29.114,24.849,29.67,23.365,29.67ZM3.338,1.854A1.463,1.463,0,0,0,1.854,3.338v23.18c0,.556.371,1.3.927,1.3H22.809c.742,0,1.3-.927,1.3-1.669V8.53L16.133,1.854Z" transform="translate(0)"/>
        <path id="路径_1314" data-name="路径 1314" class="cls-10" d="M11.126,7.418H0V0H1.854V5.563h9.272Z" transform="translate(14.835 2.72)"/>
        <path id="路径_1315" data-name="路径 1315" class="cls-10" d="M0,0H3.709V8.51H0Z" transform="translate(11.126 13.723)"/>
        <path id="路径_1316" data-name="路径 1316" class="cls-10" d="M5.934,7.047,0,1.113,1.3,0,5.934,4.636,10.57,0l1.3,1.113Z" transform="translate(7.047 17.431)"/>
      </g>
    </g>
    <g id="组_1887" data-name="组 1887" transform="translate(-17.284 8)">
      <path id="联合_30" data-name="联合 30" class="cls-2" d="M31.316,41.145a4,4,0,0,1-4-4v-4.4L0,20.093,27.317,7.437V4a4,4,0,0,1,4-4H207.6a4,4,0,0,1,4,4V37.146a4,4,0,0,1-4,4Z" transform="translate(453.284 3330)"/>
      <text id="车辆历史_车辆现状" data-name="车辆历史、车辆现状" class="cls-11" transform="translate(570.071 3358)"><tspan x="-81" y="0">车辆历史、车辆现状</tspan></text>
    </g>
    <g id="组_1888" data-name="组 1888" transform="translate(-21 324)">
      <path id="联合_30-2" data-name="联合 30" class="cls-2" d="M23.829,41.145a4,4,0,0,1-4-4v-4.4L0,20.093,19.829,7.437V4a4,4,0,0,1,4-4H149.6a4,4,0,0,1,4,4V37.146a4,4,0,0,1-4,4Z" transform="translate(457 3330)"/>
      <text id="评估师评估" class="cls-11" transform="translate(541 3358)"><tspan x="-45" y="0">评估师评估</tspan></text>
    </g>
    <g id="组_1889" data-name="组 1889" transform="translate(-308 324)">
      <path id="联合_30-3" data-name="联合 30" class="cls-2" d="M23.829,41.145a4,4,0,0,1-4-4V33.709L0,21.052,19.829,8.4V4a4,4,0,0,1,4-4H149.6a4,4,0,0,1,4,4V37.145a4,4,0,0,1-4,4Z" transform="translate(626.604 3371.146) rotate(180)"/>
      <text id="自动评估" class="cls-11" transform="translate(541 3358)"><tspan x="-36" y="0">自动评估</tspan></text>
    </g>
    <g id="组_1892" data-name="组 1892" transform="translate(-409 506)">
      <path id="联合_30-4" data-name="联合 30" class="cls-2" d="M23.829,41.145a4,4,0,0,1-4-4V33.709L0,21.052,19.829,8.4V4a4,4,0,0,1,4-4H149.6a4,4,0,0,1,4,4V37.145a4,4,0,0,1-4,4Z" transform="translate(626.604 3371.146) rotate(180)"/>
      <text id="自动触发" class="cls-11" transform="translate(541 3358)"><tspan x="-36" y="0">自动触发</tspan></text>
    </g>
    <path id="路径_1317" data-name="路径 1317" class="cls-5" d="M88.944,128a3.345,3.345,0,0,1,3.067,1.723l.479,1.021q2.122,4.561,3.39,8.071h2.982a1.521,1.521,0,0,1,1.646,1.352,1.487,1.487,0,0,1-1.487,1.346l-.158.006H96.778a19.844,19.844,0,0,1,.988,5.407,94.813,94.813,0,0,1-.785,11.082,3.118,3.118,0,0,1-3.275,2.437H88.4a3.2,3.2,0,0,1-3.227-2.173l-.568-2.333H69.241l-.568,2.333a3.2,3.2,0,0,1-3.227,2.173H60.153A3.114,3.114,0,0,1,56.876,158l-.2-1.759a91.965,91.965,0,0,1-.605-9.311,19.674,19.674,0,0,1,1.068-5.407H54.979a1.521,1.521,0,0,1-1.646-1.352,1.487,1.487,0,0,1,1.487-1.346l.158-.006h3.082q1.4-3.84,3.787-9.062A3.335,3.335,0,0,1,64.929,128Zm4.44,13.519H60.545q-.493,1.508-.78,2.7H65.95v2.7H59.367a96.378,96.378,0,0,0,.721,10.252l.064.562h5.293l1.1-4.506H87.3l1.1,4.506h5.31a92.709,92.709,0,0,0,.769-10.815H87.892v-2.7h6.232q-.268-1.214-.74-2.7ZM88.944,130.7H64.929l-.428.943q-1.823,4.047-3,7.169H92.441q-1.179-3.133-3.045-7.148Z" transform="translate(471.492 3157.943)"/>
    <g id="组_1886" data-name="组 1886" transform="translate(12.716 8)">
      <path id="联合_36" data-name="联合 36" class="cls-2" d="M31.316,41.145a4,4,0,0,1-4-4V33.71L0,21.052,27.317,8.4V4a4,4,0,0,1,4-4H207.6a4,4,0,0,1,4,4V37.145a4,4,0,0,1-4,4Z" transform="translate(304.887 3371.146) rotate(180)"/>
      <text id="检测设备_评估师" data-name="检测设备、评估师" class="cls-11" transform="translate(186 3358)"><tspan x="-72" y="0">检测设备、评估师</tspan></text>
    </g>
    <g id="组_1856" data-name="组 1856" transform="translate(183.453 3282)">
      <path id="路径_1318" data-name="路径 1318" class="cls-5" d="M187.933,66c-6.279,0-10.494,4.374-10.494,10.973v.114a13.286,13.286,0,0,0,2.7,8.172l.026.033-6.475,4.766A4.144,4.144,0,0,0,172,93.4v8.891a2.763,2.763,0,0,0,2.763,2.763H201.1a2.763,2.763,0,0,0,2.763-2.763V93.346a4.146,4.146,0,0,0-1.688-3.288L195.7,85.292l.026-.033a13.314,13.314,0,0,0,2.7-8.287C198.427,70.374,194.212,66,187.933,66Zm0,2.763c4.73,0,7.732,3.114,7.732,8.21a10.069,10.069,0,0,1-2.96,7.493,1.382,1.382,0,0,0,.112,2.133l7.723,5.684A1.381,1.381,0,0,1,201.1,93.4v8.891h-26.34V93.4a1.381,1.381,0,0,1,.563-1.113l7.723-5.684a1.381,1.381,0,0,0,.135-2.112l-.022-.021a10.069,10.069,0,0,1-2.96-7.493C180.2,71.877,183.2,68.763,187.933,68.763Z" transform="translate(-172 -66)"/>
      <path id="路径_1319" data-name="路径 1319" class="cls-5" d="M491.763,614v6.828a1.381,1.381,0,1,1-2.763,0V614Z" transform="translate(-474.403 -588.765)"/>
    </g>
    <path id="多边形_91" data-name="多边形 91" class="cls-5" d="M8.933,0l8.933,15.43H0Z" transform="translate(383.867 3464.556) rotate(180)"/>
    <path id="多边形_92" data-name="多边形 92" class="cls-5" d="M8.933,0l8.933,15.43H0Z" transform="translate(383.867 3623.123) rotate(180)"/>
    <path id="多边形_96" data-name="多边形 96" class="cls-7" d="M8.933,0l8.933,15.43H0Z" transform="translate(385.867 4005.123) rotate(180)"/>
    <path id="多边形_97" data-name="多边形 97" class="cls-7" d="M8.933,0l8.933,15.43H0Z" transform="translate(385.867 4158.123) rotate(180)"/>
    <g id="组_1894" data-name="组 1894" transform="translate(342 4179.099)">
      <g id="路径_1320" data-name="路径 1320" class="cls-4" transform="translate(0 0)">
        <path class="cls-13" d="M 51.6357307434082 58.87507629394531 L 18.3642463684082 58.87507629394531 L 1.733822464942932 30.18753242492676 L 18.36426162719727 1.500006198883057 L 51.6357307434082 1.500006198883057 L 68.26617431640625 30.18753623962402 L 51.6357307434082 58.87507629394531 Z"/>
        <path class="cls-14" d="M 19.22851943969727 2.999996185302734 L 3.467643737792969 30.18753623962402 L 19.22850799560547 57.37506484985352 L 50.77146911621094 57.37506484985352 L 66.5323486328125 30.18753623962402 L 50.77146911621094 2.999996185302734 L 19.22851943969727 2.999996185302734 M 17.5 -3.814697265625e-06 L 52.4999885559082 -3.814697265625e-06 L 70 30.18753623962402 L 52.4999885559082 60.37506484985352 L 17.4999885559082 60.37506484985352 L 0 30.18753623962402 L 17.5 -3.814697265625e-06 Z"/>
      </g>
      <g id="组_1847" data-name="组 1847" transform="translate(21 16.255)">
        <path id="路径_1311" data-name="路径 1311" class="cls-10" d="M75.438,50.209a11.943,11.943,0,0,1,8.719,3.807H81.274a1.085,1.085,0,0,0,0,2.17h5.281A1.085,1.085,0,0,0,87.64,55.1v-5.54a1.085,1.085,0,1,0-2.17,0V52.25a14.063,14.063,0,0,0-24.024,8.433,1.085,1.085,0,1,0,2.159.217A11.849,11.849,0,0,1,75.438,50.209ZM88.459,62.276a1.085,1.085,0,0,0-1.184.977,11.89,11.89,0,0,1-19.989,7.506h2.9a1.085,1.085,0,1,0,0-2.17H64.908a1.085,1.085,0,0,0-1.085,1.085v5.541a1.085,1.085,0,0,0,2.17,0v-2.7a14.062,14.062,0,0,0,23.443-9.06A1.085,1.085,0,0,0,88.459,62.276Z" transform="translate(-61.441 -48.04)"/>
        <path id="路径_1312" data-name="路径 1312" class="cls-10" d="M321.846,387.55H311.435a1.085,1.085,0,1,0,0,2.17h10.411a1.085,1.085,0,0,0,0-2.17Zm0,5.181H311.435a1.085,1.085,0,1,0,0,2.17h10.411a1.085,1.085,0,0,0,0-2.17Z" transform="translate(-302.633 -377.024)"/>
      </g>
    </g>
    <path id="路径_1326" data-name="路径 1326" class="cls-12" d="M689.405,187.524V0H.844L0,193.509" transform="translate(647.604 3574.5) rotate(90)"/>
    <path id="多边形_98" data-name="多边形 98" class="cls-5" d="M7.134,1.495a1,1,0,0,1,1.731,0L15.13,12.317a1,1,0,0,1-.865,1.5H1.734a1,1,0,0,1-.865-1.5Z" transform="translate(466.646 3578.446) rotate(150)"/>
  </g>
</svg>
